<svg xmlns="http://www.w3.org/2000/svg" xmlns:xlink="http://www.w3.org/1999/xlink" width="120" height="92.267" viewBox="0 0 120 92.267"><defs><style>.a{fill:url(#a);}</style><linearGradient id="a" x1="0.963" y1="0.464" x2="0.005" y2="0.538" gradientUnits="objectBoundingBox"><stop offset="0" stop-color="#ffeb76"/><stop offset="0.169" stop-color="#ad7e24"/><stop offset="0.254" stop-color="#894e00"/><stop offset="0.51" stop-color="#c3912f"/><stop offset="0.541" stop-color="#cca13c"/><stop offset="0.657" stop-color="#efda6b"/><stop offset="0.712" stop-color="#fdf17e"/><stop offset="0.887" stop-color="#9f6812"/><stop offset="1" stop-color="#e4c85c"/></linearGradient></defs><g transform="translate(0 -59.331)"><path class="a" d="M31,262.7a21.226,21.226,0,1,0,21.226-21.226A21.25,21.25,0,0,0,31,262.7Zm38.947,0a17.721,17.721,0,1,1-17.721-17.721A17.741,17.741,0,0,1,69.947,262.7Z" transform="translate(-23.755 -139.569)"/><path class="a" d="M115.97,108.539c0-.009-.007-.019-.012-.028L101.74,79.035A20.4,20.4,0,0,0,92.6,69.741l-1.342-2.783a13.487,13.487,0,0,0-25.634,5.86V78a20.2,20.2,0,0,0-2.355,6.964H56.734A20.2,20.2,0,0,0,54.378,78V72.818a13.487,13.487,0,0,0-25.634-5.859L27.4,69.741a20.4,20.4,0,0,0-9.143,9.294L15.8,84.14a1.753,1.753,0,1,0,3.158,1.523l2.463-5.106a16.847,16.847,0,0,1,32.02,7.319V109.44a28.512,28.512,0,0,0-6.531-8.01,1.753,1.753,0,0,0-2.271,2.67,24.855,24.855,0,1,1-5.9-3.739,1.753,1.753,0,0,0,1.443-3.195A28.465,28.465,0,0,0,12.12,99.831L15.7,92.408a1.753,1.753,0,1,0-3.158-1.523l-8.5,17.627c0,.009-.007.019-.012.028a28.468,28.468,0,1,0,52.906,15.179h6.129a28.471,28.471,0,1,0,52.906-15.179ZM98.583,80.557l9.3,19.273a28.443,28.443,0,0,0-41.317,9.62V87.877a16.847,16.847,0,0,1,32.02-7.319ZM63.057,120.212H56.944V88.466h6.113ZM79.108,62.837a10.037,10.037,0,0,1,8.749,5.189,20.243,20.243,0,0,0-18.73,5.366v-.574a9.992,9.992,0,0,1,9.981-9.981ZM36.591,67.524a20.1,20.1,0,0,0-4.449.5,9.977,9.977,0,0,1,18.73,4.792v.574A20.286,20.286,0,0,0,36.591,67.524Zm54.937,80.568a24.966,24.966,0,1,1,24.966-24.966,24.994,24.994,0,0,1-24.966,24.966Z" transform="translate(0 0)"/><path class="a" d="M329.989,243.026a1.753,1.753,0,0,0-1.319,3.248,17.712,17.712,0,1,1-6.679-1.3,1.753,1.753,0,0,0,0-3.506h0a21.239,21.239,0,1,0,8.005,1.554Z" transform="translate(-230.497 -139.572)"/></g></svg>