<svg xmlns="http://www.w3.org/2000/svg" xmlns:xlink="http://www.w3.org/1999/xlink" width="60" height="60" viewBox="0 0 60 60"><defs><style>.a{fill:url(#a);}</style><linearGradient id="a" x1="0.963" y1="0.464" x2="0.005" y2="0.538" gradientUnits="objectBoundingBox"><stop offset="0" stop-color="#ffeb76"/><stop offset="0.169" stop-color="#ad7e24"/><stop offset="0.254" stop-color="#894e00"/><stop offset="0.51" stop-color="#c3912f"/><stop offset="0.541" stop-color="#cca13c"/><stop offset="0.657" stop-color="#efda6b"/><stop offset="0.712" stop-color="#fdf17e"/><stop offset="0.887" stop-color="#9f6812"/><stop offset="1" stop-color="#e4c85c"/></linearGradient></defs><g transform="translate(0 -0.002)"><g transform="translate(30 20.002)"><path class="a" d="M247,160a7.008,7.008,0,0,1-7,7v2a9.01,9.01,0,0,0,9-9Z" transform="translate(-240 -160.002)"/></g><g transform="translate(21 11.002)"><path class="a" d="M168,97h2a7.008,7.008,0,0,1,7-7V88A9.01,9.01,0,0,0,168,97Z" transform="translate(-168 -88.002)"/></g><g transform="translate(25.996 15.002)"><path class="a" d="M213.78,124.789l-3.285-.547a.624.624,0,0,1,.1-1.24h2.752a.625.625,0,0,1,.624.624V124h2v-.376A2.627,2.627,0,0,0,213.349,121h-.376v-1h-2v1H210.6a2.624,2.624,0,0,0-.431,5.213l3.285.547a.624.624,0,0,1-.1,1.24H210.6a.625.625,0,0,1-.624-.624V127h-2v.376A2.627,2.627,0,0,0,210.6,130h.376v1h2v-1h.376a2.624,2.624,0,0,0,.431-5.213Z" transform="translate(-207.969 -120.002)"/></g><g transform="translate(16.997 0.002)"><path class="a" d="M160.976,15V7h-2v4.7a13.1,13.1,0,0,0-2-1.931V4h-2V8.481a12.9,12.9,0,0,0-6-1.479c-.338,0-.669.025-1,.051V0h-2V7.365a12.979,12.979,0,0,0-2,.637V6h-2V9h.1a13.1,13.1,0,0,0-3.1,2.7V4h-2V15a13,13,0,1,0,24,0ZM156.46,27.979a10.965,10.965,0,1,1-1.484-17.18V16h2V12.481A10.965,10.965,0,0,1,156.46,27.979Z" transform="translate(-135.973 -0.002)"/></g><g transform="translate(36 0.002)"><rect class="a" width="2" height="2"/></g><g transform="translate(23 2.002)"><rect class="a" width="2" height="2"/></g><g transform="translate(44.002 2.005)"><path class="a" d="M362,20.853a1,1,0,0,0-.819-.819A3.868,3.868,0,0,1,358,16.856a1,1,0,0,0-1.972,0,3.868,3.868,0,0,1-3.179,3.178,1,1,0,0,0,0,1.972,3.868,3.868,0,0,1,3.179,3.178,1,1,0,0,0,1.972,0,3.868,3.868,0,0,1,3.179-3.178A1,1,0,0,0,362,20.853Zm-4.984,1.595a5.869,5.869,0,0,0-1.428-1.428,5.87,5.87,0,0,0,1.428-1.428,5.869,5.869,0,0,0,1.428,1.428A5.867,5.867,0,0,0,357.011,22.448Z" transform="translate(-352.013 -16.023)"/></g><g transform="translate(0 38.4)"><path class="a" d="M59.266,311.655a4.257,4.257,0,0,0-3.461-1.867,4.214,4.214,0,0,0-1.988.5L42.475,316.4a4.5,4.5,0,0,0-3.975-6.608H27.361a11.682,11.682,0,0,0-14.7,0H0v2H12v15H0v2H39.789a4.974,4.974,0,0,0,2.773-.84l15.57-10.38A4.257,4.257,0,0,0,59.266,311.655ZM57.023,315.9l-15.57,10.384a2.984,2.984,0,0,1-1.664.5H14V311.262a9.7,9.7,0,0,1,12.349.286,1,1,0,0,0,.651.24H38.5a2.5,2.5,0,0,1,0,5H28a1,1,0,0,0,0,2H42a1,1,0,0,0,.474-.119l12.292-6.619a2.238,2.238,0,0,1,2.257,3.854Z" transform="translate(0 -307.186)"/></g><g transform="translate(4 50.002)"><path class="a" d="M35,400a3,3,0,1,0,3,3A3,3,0,0,0,35,400Zm0,4a1,1,0,1,1,1-1A1,1,0,0,1,35,404Z" transform="translate(-32 -400.002)"/></g></g></svg>