<svg xmlns="http://www.w3.org/2000/svg" xmlns:xlink="http://www.w3.org/1999/xlink" width="49.979" height="60" viewBox="0 0 49.979 60"><defs><style>.a{fill:url(#a);}</style><linearGradient id="a" x1="0.963" y1="0.464" x2="0.005" y2="0.538" gradientUnits="objectBoundingBox"><stop offset="0" stop-color="#ffeb76"/><stop offset="0.169" stop-color="#ad7e24"/><stop offset="0.254" stop-color="#894e00"/><stop offset="0.51" stop-color="#c3912f"/><stop offset="0.541" stop-color="#cca13c"/><stop offset="0.657" stop-color="#efda6b"/><stop offset="0.712" stop-color="#fdf17e"/><stop offset="0.887" stop-color="#9f6812"/><stop offset="1" stop-color="#e4c85c"/></linearGradient></defs><g transform="translate(-0.09 0.014)"><path class="a" d="M77.075,41.993v-1.6a10.927,10.927,0,0,1,3.255-7.8,19,19,0,1,0-26.386.1,10.641,10.641,0,0,1,3.139,7.7v1.6a3.988,3.988,0,0,0-1.312,7.758,4,4,0,0,0,3.312,6.237h1.1a5.008,5.008,0,0,0,4.9,4h4a5.007,5.007,0,0,0,4.9-4h1.1a4,4,0,0,0,3.311-6.237,3.988,3.988,0,0,0-1.311-7.758ZM55.326,31.255A16.947,16.947,0,0,1,50.14,17.641,17.156,17.156,0,0,1,65.134,2.117,16.983,16.983,0,0,1,78.928,31.156a12.937,12.937,0,0,0-3.852,9.237v1.6H59.082v-1.6a12.648,12.648,0,0,0-3.756-9.138ZM69.078,57.986h-4a3,3,0,0,1-2.815-2h9.628a3,3,0,0,1-2.815,2Zm6-4H59.082a2,2,0,0,1,0-4H75.076a2,2,0,1,1,0,4Zm2-6H57.083a2,2,0,0,1,0-4H77.075a2,2,0,1,1,0,4Zm0,0" transform="translate(-42)"/><path class="a" d="M368.09,144.184h4v2h-4Zm0,0" transform="translate(-322.019 -126.181)"/><path class="a" d="M341.586,47.245l3.462-2,1,1.732-3.463,2Zm0,0" transform="translate(-298.827 -39.605)"/><path class="a" d="M22.883,46.993l1-1.731,3.462,2-1,1.731Zm0,0" transform="translate(-19.945 -39.619)"/><path class="a" d="M.09,144.184h4v2h-4Zm0,0" transform="translate(0 -126.181)"/><path class="a" d="M22.895,231.245l3.463-2,1,1.732-3.463,2Zm0,0" transform="translate(-19.955 -200.615)"/><path class="a" d="M341.586,230.989l1-1.731,3.462,2-1,1.731Zm0,0" transform="translate(-298.827 -200.625)"/><path class="a" d="M122.093,70.621l.52-1.041.637,1.909a1,1,0,0,0,.942.684h4a1,1,0,0,0,.948-.684l.636-1.909.52,1.041a1,1,0,0,0,.895.553h3.556a2,2,0,0,0,1.872-2.7l-2.006-5.348a3.011,3.011,0,0,0-2.422-1.919V55.365a4.93,4.93,0,0,0-.86-2.8c-2.995-4.377-4.607-4.377-5.137-4.377s-2.142,0-5.136,4.376a4.934,4.934,0,0,0-.862,2.805v5.843a3.011,3.011,0,0,0-2.422,1.916l-2.006,5.351a2,2,0,0,0,1.872,2.7h3.555a1,1,0,0,0,.9-.553Zm2.82-.447-.334-1H127.8l-.334,1Zm7.826-6.348,2.006,5.349h-2.938L131.72,69a.981.981,0,0,0,.469-.825V63.266a.992.992,0,0,1,.55.56Zm-10.546-8.461a2.95,2.95,0,0,1,.512-1.676c1.9-2.774,3.111-3.506,3.486-3.506s1.59.733,3.488,3.507a2.95,2.95,0,0,1,.511,1.675V67.176h-3v-6h-2v6h-3Zm-4.555,13.81,2.006-5.35a.994.994,0,0,1,.55-.559v4.909a.981.981,0,0,0,.469.825l-.087.174Zm0,0" transform="translate(-101.112 -42.176)"/><path class="a" d="M179.089,86.182a3,3,0,1,0-3-3A3,3,0,0,0,179.089,86.182Zm0-4a1,1,0,1,1-1,1A1,1,0,0,1,179.089,82.183Zm0,0" transform="translate(-154.009 -70.178)"/><path class="a" d="M192.09,272.184h2v6h-2Zm0,0" transform="translate(-168.01 -238.188)"/><path class="a" d="M224.09,256.184h2v6h-2Zm0,0" transform="translate(-196.012 -224.187)"/><path class="a" d="M160.09,256.184h2v6h-2Zm0,0" transform="translate(-140.008 -224.187)"/></g></svg>