<svg xmlns="http://www.w3.org/2000/svg" xmlns:xlink="http://www.w3.org/1999/xlink" width="60" height="59.602" viewBox="0 0 60 59.602"><defs><style>.a{fill:url(#a);}</style><linearGradient id="a" x1="0.963" y1="0.464" x2="0.005" y2="0.538" gradientUnits="objectBoundingBox"><stop offset="0" stop-color="#ffeb76"/><stop offset="0.169" stop-color="#ad7e24"/><stop offset="0.254" stop-color="#894e00"/><stop offset="0.51" stop-color="#c3912f"/><stop offset="0.541" stop-color="#cca13c"/><stop offset="0.657" stop-color="#efda6b"/><stop offset="0.712" stop-color="#fdf17e"/><stop offset="0.887" stop-color="#9f6812"/><stop offset="1" stop-color="#e4c85c"/></linearGradient></defs><g transform="translate(-1 -1)"><path class="a" d="M15.856,28.216a5.6,5.6,0,0,0,7.923,0l.563-.563-1.359-1.359-.563.563a3.771,3.771,0,0,1-5.2,0l-.563-.563-1.359,1.359Z" transform="translate(-0.553 -0.978)"/><path class="a" d="M51,17h1.923v1.923H51Z" transform="translate(-1.934 -0.619)"/><path class="a" d="M55,17h1.923v1.923H55Z" transform="translate(-2.089 -0.619)"/><path class="a" d="M59,17h1.923v1.923H59Z" transform="translate(-2.243 -0.619)"/><path class="a" d="M56.475,20.508l-1.359,1.359,2.2,2.2H46.75a19,19,0,0,0,.393-3.815,18.512,18.512,0,0,0-2.723-9.644h12.9l-2.2,2.2,1.359,1.359L61,9.652,56.475,5.127,55.116,6.486l2.2,2.2H43.1A19.727,19.727,0,0,0,27.479,1H18.892A17.9,17.9,0,0,0,1,18.9,18.465,18.465,0,0,0,7.455,32.93l.04.035-.952,1.9A6.975,6.975,0,0,0,11.916,44.91l.62.078a1.92,1.92,0,0,1,1.482,1.094l-2.115.353A13.051,13.051,0,0,0,1,59.305v1.3H28.89a7.852,7.852,0,0,0,7.485-5.768h.194a1.925,1.925,0,0,0,1.923-1.923V47.143a1.921,1.921,0,0,0-1.859-1.916,12.994,12.994,0,0,1,.934-3.852H57.32l-2.2,2.2,1.359,1.359L61,40.414l-4.525-4.525-1.359,1.359,2.2,2.2H38.486A50.5,50.5,0,0,1,41.326,35a34.2,34.2,0,0,0,4.924-9H57.32l-2.2,2.2,1.359,1.359L61,25.033Zm-25.24-8.274a3.754,3.754,0,0,0,4.121-.808l.04-.04,1.361,1.361-.04.04A3.806,3.806,0,0,0,39.4,19.265h.053v1.923H39.4a3.807,3.807,0,0,0-2.683,6.477l.04.04L35.4,29.067l-.04-.04a3.806,3.806,0,0,0-6.477,2.683v.053h-.961V26.956a6.729,6.729,0,0,0,0-13.459V8.691h.961v.053a3.763,3.763,0,0,0,2.356,3.491Zm5.334,34.909v1.923H27.917V47.143ZM20.383,21.772a5.743,5.743,0,0,0,3.689,1.338h1.923v12.5H25.83a5.567,5.567,0,0,1-3.963-1.641l-1.359,1.359a7.477,7.477,0,0,0,5.322,2.2h.164v3.845h-.385a12.417,12.417,0,0,1-6.017-1.559,11.528,11.528,0,0,1-5.85-8.79l-.906-8.152a5.718,5.718,0,0,0,1.622.236h.38a12.4,12.4,0,0,0,5.545-1.338Zm7.534-6.352a4.807,4.807,0,0,1,0,9.613ZM25.609,43.3h.385v5.174L20.33,45.64l.527-3.162A14.341,14.341,0,0,0,25.609,43.3Zm-5.382,4.439,4.766,2.383L20.226,53.1ZM15.946,45.68a3.865,3.865,0,0,0-3.17-2.6L12.155,43a5.053,5.053,0,0,1-3.892-7.274l1.623-3.246L8.706,31.47A16.54,16.54,0,0,1,2.923,18.9,15.971,15.971,0,0,1,18.892,2.923h7.1V21.188H24.072a3.845,3.845,0,1,1,0-7.691V11.575a5.756,5.756,0,0,0-4.965,8.688,10.492,10.492,0,0,1-4.268.925h-.38a3.845,3.845,0,1,1,0-7.691V11.575A5.765,5.765,0,0,0,10.78,21.782l1.051,9.457A13.455,13.455,0,0,0,18.658,41.5c.125.069.254.131.381.2l-.609,3.654-2.458.41ZM5.6,52.065a11.143,11.143,0,0,1,6.619-3.734L18.3,47.317v9.252l7.691-4.808v6.918H2.941A11.13,11.13,0,0,1,5.6,52.065Zm23.277,6.615h-.961V54.834h6.434a5.922,5.922,0,0,1-5.473,3.845Zm-.961-5.768V50.989h8.652v1.923ZM39.742,33.9C37.4,37.3,34.992,40.8,34.682,45.221h-2.92V40.57a3.254,3.254,0,0,1,2.226-3.09l-.609-1.823A5.171,5.171,0,0,0,29.84,40.57v4.651H27.917V33.685H30.8V31.709A1.884,1.884,0,0,1,34,30.386l1.4,1.4,4.08-4.08-1.4-1.4a1.859,1.859,0,0,1-.378-2.058,1.833,1.833,0,0,1,1.7-1.137h1.976V17.342H39.4a1.884,1.884,0,0,1-1.324-3.2l1.4-1.4L35.4,8.668l-1.4,1.4a1.857,1.857,0,0,1-2.058.377,1.834,1.834,0,0,1-1.136-1.7V6.768H27.917V2.945A18.069,18.069,0,0,1,40.151,8.231a16.923,16.923,0,0,1,5.07,12.022C45.212,25.971,42.431,30,39.742,33.9Z" transform="translate(0 0)"/><path class="a" d="M51,33h1.923v1.923H51Z" transform="translate(-1.934 -1.238)"/><path class="a" d="M55,33h1.923v1.923H55Z" transform="translate(-2.089 -1.238)"/><path class="a" d="M59,33h1.923v1.923H59Z" transform="translate(-2.243 -1.238)"/></g></svg>