<svg xmlns="http://www.w3.org/2000/svg" xmlns:xlink="http://www.w3.org/1999/xlink" width="60.154" height="60" viewBox="0 0 60.154 60"><defs><style>.a{fill:url(#a);}</style><linearGradient id="a" x1="0.963" y1="0.464" x2="0.005" y2="0.538" gradientUnits="objectBoundingBox"><stop offset="0" stop-color="#ffeb76"/><stop offset="0.169" stop-color="#ad7e24"/><stop offset="0.254" stop-color="#894e00"/><stop offset="0.51" stop-color="#c3912f"/><stop offset="0.541" stop-color="#cca13c"/><stop offset="0.657" stop-color="#efda6b"/><stop offset="0.712" stop-color="#fdf17e"/><stop offset="0.887" stop-color="#9f6812"/><stop offset="1" stop-color="#e4c85c"/></linearGradient></defs><g transform="translate(-0.424)"><g transform="translate(0.424)"><path class="a" d="M56.07,31.342a2.034,2.034,0,0,0-2-1.651H52.11l-.144-.865a2.044,2.044,0,0,0-1.7-1.685c-.193-.031-.388-.051-.581-.077a6.2,6.2,0,0,0-.773-4.535A4.161,4.161,0,0,0,45.9,16.962,8.653,8.653,0,0,0,37.444,9.9c-.1,0-.192.013-.289.016a4.137,4.137,0,0,0-6.328-.787A6.98,6.98,0,0,0,27.029,8a7.061,7.061,0,0,0-5.551,2.734,5.065,5.065,0,0,0-6.474,4.552,4.186,4.186,0,0,0-2.564,3.856,4.136,4.136,0,0,0,.1.867,8.184,8.184,0,0,0-.975,7.017c-.273.038-.551.071-.814.11A2.046,2.046,0,0,0,9.042,28.82l-.144.868H6.928a2.034,2.034,0,0,0-2,1.646L.48,54.2a3.051,3.051,0,0,0,3,3.633H24.688c.842,1.389,3.4,2.034,5.813,2.034,2.387,0,4.921-.629,5.787-2.034H57.522a3.051,3.051,0,0,0,3-3.632ZM15.517,20.982a2.148,2.148,0,0,1,1.1-3.988,2.109,2.109,0,0,1,1.707.862,1.017,1.017,0,0,0,1.633-1.212,4.109,4.109,0,0,0-2.884-1.627,3.092,3.092,0,0,1,3.015-2.448,3.17,3.17,0,0,1,.37.041,6.68,6.68,0,0,0-.214.637,1.017,1.017,0,0,0,1.969.508,4.946,4.946,0,0,1,.528-1.273,5.022,5.022,0,0,1,4.289-2.448,4.939,4.939,0,0,1,2.694.814,4.134,4.134,0,0,0-.239,1.333,1.017,1.017,0,1,0,2.034,0,2.139,2.139,0,1,1,4.278,0,1.017,1.017,0,1,0,2.034,0c0-.078-.019-.153-.023-.231a6.6,6.6,0,0,1,6.022,5.091,4.127,4.127,0,0,0-1.316.656,1.017,1.017,0,1,0,1.22,1.627A2.144,2.144,0,0,1,46.878,22.1a2.169,2.169,0,0,1-.963.891,1.017,1.017,0,0,0,.433,1.932,1,1,0,0,0,.431-.1,4.177,4.177,0,0,0,.76-.475,4.343,4.343,0,0,1-.86,4.337l-.024.025a4.392,4.392,0,0,1-5.186.952,4.036,4.036,0,0,1-.492-.307,3.464,3.464,0,0,0,.268-3.58,1.017,1.017,0,1,0-1.817.915,1.514,1.514,0,0,1-.49,1.917,1.535,1.535,0,0,1-2.209-.563,1.017,1.017,0,1,0-1.819.91,3.526,3.526,0,0,0,3.169,1.961,3.488,3.488,0,0,0,1.276-.251,6.019,6.019,0,0,0,1.192.814,6.264,6.264,0,0,0,4.7.434,6.482,6.482,0,0,1-4.188,2.568,1.017,1.017,0,0,0,.16,2.021,1.082,1.082,0,0,0,.162-.012,8.357,8.357,0,0,0,1.8-.527,9.093,9.093,0,0,1,.759,1.746,1.048,1.048,0,0,1,.053.328,1.1,1.1,0,0,1-.667,1.009,1.151,1.151,0,0,1-1.313-.353,6.491,6.491,0,0,0-2.977-1.978c-2.2-.736-3.046-1.394-3.406-2.11a9.763,9.763,0,0,0,1.559-.325,1.017,1.017,0,1,0-.6-1.944,7.707,7.707,0,0,1-1.755.322,7.548,7.548,0,0,1-3.37-.508,1.017,1.017,0,0,0-1.14.284A4.355,4.355,0,0,1,23.3,27.34a1.02,1.02,0,0,0-1.75-1.048A6.351,6.351,0,0,0,20.97,27.6a1.525,1.525,0,0,1-1.445-1.5v-.025a1.006,1.006,0,0,0-1.017-1A1.027,1.027,0,0,0,17.491,26.1a3.539,3.539,0,0,0,3.158,3.509,6.385,6.385,0,0,0,.093,1.017,6.215,6.215,0,0,1-7.031-8.511,4.1,4.1,0,0,0,.757.6,1.017,1.017,0,0,0,1.049-1.742Zm-4.475,8.169c.469-.069.953-.13,1.434-.193a8.211,8.211,0,0,0,8.919,3.618,6.37,6.37,0,0,0,9.978,1.691,9.762,9.762,0,0,0,2.122.384c.491,1.863,1.911,2.992,4.894,3.992a4.507,4.507,0,0,1,2.071,1.364,3.239,3.239,0,0,0,2.457,1.154,3.089,3.089,0,0,0,1.207-.246,3.131,3.131,0,0,0,1.9-2.879,3.017,3.017,0,0,0-.155-.962,11.116,11.116,0,0,0-.9-2.069,8.573,8.573,0,0,0,3.379-5.168,6.37,6.37,0,0,0,.586-.82c.341.044.681.082,1.024.139l3.671,22.082a34.908,34.908,0,0,0-22.113,0V38.508a1.017,1.017,0,1,0-2.034,0V51.243a34.914,34.914,0,0,0-22.113-.008ZM2.689,55.422a1.009,1.009,0,0,1-.214-.834L6.928,31.725H8.556L5.364,50.9a2.041,2.041,0,0,0,2.625,2.272,34.022,34.022,0,0,1,16.8-1.066l-.3,3.686h-21a1.024,1.024,0,0,1-.792-.374ZM30.5,57.831c-2.45,0-3.855-.724-4.062-1.046l.35-4.22a21.732,21.732,0,0,1,3.273,1.1,1.026,1.026,0,0,0,.439.1,1.011,1.011,0,0,0,.44-.1,21.661,21.661,0,0,1,3.272-1.1l.35,4.226c-.206.323-1.612,1.047-4.062,1.047Zm27.813-2.408a1.024,1.024,0,0,1-.792.374h-21L36.218,52.1a34.032,34.032,0,0,1,16.8,1.075A2.04,2.04,0,0,0,55.637,50.9L52.449,31.726h1.627L58.53,54.587A1.009,1.009,0,0,1,58.314,55.422Z" transform="translate(-0.424 0.136)"/><path class="a" d="M26.692,22.731a1.017,1.017,0,0,0-.072,1.436,6.132,6.132,0,0,0,3.259,1.879A3.029,3.029,0,0,1,27.4,27.322a1.017,1.017,0,0,0,0,2.034,5.043,5.043,0,0,0,4.738-3.261,6.137,6.137,0,0,0,5.021-4.881,1.017,1.017,0,1,0-2-.382,4.054,4.054,0,0,1-1.684,2.582,4.151,4.151,0,0,1-5.353-.61,1.017,1.017,0,0,0-1.436-.072Z" transform="translate(0.016 0.339)"/><path class="a" d="M23.217,21.695a1.017,1.017,0,0,0,1.017-1.017,2.644,2.644,0,0,1,2.644-2.644,1.017,1.017,0,1,0,0-2.034A4.683,4.683,0,0,0,22.2,20.678a1.017,1.017,0,0,0,1.017,1.017Z" transform="translate(-0.055 0.271)"/><path class="a" d="M31.034,2.034V1.017a1.017,1.017,0,0,0-2.034,0V2.034a1.017,1.017,0,0,0,2.034,0Z" transform="translate(0.06)"/><path class="a" d="M46.432,7.181,45.415,8.2a1.017,1.017,0,1,0,1.438,1.438L47.87,8.619a1.017,1.017,0,1,0-1.438-1.438Z" transform="translate(0.333 0.116)"/><path class="a" d="M13.917,9.934A1.017,1.017,0,0,0,14.636,8.2L13.619,7.181a1.017,1.017,0,1,0-1.438,1.438L13.2,9.636a1.017,1.017,0,0,0,.719.3Z" transform="translate(-0.23 0.116)"/><path class="a" d="M21.618,5.756a1.031,1.031,0,0,0,.389-.077,1.017,1.017,0,0,0,.55-1.329L21.389,1.531a1.017,1.017,0,1,0-1.878.779l1.167,2.819a1.017,1.017,0,0,0,.94.627Z" transform="translate(-0.102 0.015)"/><path class="a" d="M39.993.98a1.017,1.017,0,0,0-1.328.55L37.5,4.349a1.017,1.017,0,0,0,.55,1.33,1.031,1.031,0,0,0,.389.077,1.017,1.017,0,0,0,.94-.627L40.543,2.31a1.017,1.017,0,0,0-.55-1.33Z" transform="translate(0.203 0.015)"/><path class="a" d="M50.342,17.635a1.017,1.017,0,0,0,.389-.078l2.818-1.167a1.017,1.017,0,1,0-.778-1.879l-2.819,1.167a1.017,1.017,0,0,0,.389,1.958Z" transform="translate(0.405 0.245)"/><path class="a" d="M9.349,17.557a1.017,1.017,0,0,0,.779-1.879L7.309,14.51a1.017,1.017,0,0,0-.778,1.879Z" transform="translate(-0.331 0.245)"/></g></g></svg>