<svg xmlns="http://www.w3.org/2000/svg" xmlns:xlink="http://www.w3.org/1999/xlink" width="60" height="59.998" viewBox="0 0 60 59.998"><defs><style>.a{fill:url(#a);}</style><linearGradient id="a" x1="0.963" y1="0.464" x2="0.005" y2="0.538" gradientUnits="objectBoundingBox"><stop offset="0" stop-color="#ffeb76"/><stop offset="0.169" stop-color="#ad7e24"/><stop offset="0.254" stop-color="#894e00"/><stop offset="0.51" stop-color="#c3912f"/><stop offset="0.541" stop-color="#cca13c"/><stop offset="0.657" stop-color="#efda6b"/><stop offset="0.712" stop-color="#fdf17e"/><stop offset="0.887" stop-color="#9f6812"/><stop offset="1" stop-color="#e4c85c"/></linearGradient></defs><g transform="translate(-4.556 -4.56)"><path class="a" d="M64.138,29.7a7.458,7.458,0,1,0-7.458,7.459A7.457,7.457,0,0,0,64.138,29.7Zm-13.149,0a5.691,5.691,0,1,1,5.692,5.692A5.691,5.691,0,0,1,50.989,29.7Z" transform="translate(-22.125 -8.761)"/><path class="a" d="M64.5,63.359,57.3,44.484a.884.884,0,0,0-.825-.568H42.846c.083-.136.166-.267.249-.4,5.243-8.68,7.882-16.274,7.844-22.566a16.384,16.384,0,1,0-32.768,0c-.038,6.3,2.6,13.889,7.844,22.569.083.138.166.269.249.4H12.638a.884.884,0,0,0-.825.568l-7.2,18.875a.882.882,0,0,0,.825,1.2H63.672a.882.882,0,0,0,.825-1.2ZM19.939,20.942a14.617,14.617,0,0,1,29.235,0c.076,12.548-11.653,28.021-14.617,31.731C31.592,48.967,19.862,33.5,19.939,20.942Zm13.945,33.7a.883.883,0,0,0,1.345,0,93.727,93.727,0,0,0,6.51-8.963H55.864l1.13,2.965-27.6,9.816L19.555,45.68h7.817a93.729,93.729,0,0,0,6.511,8.964Zm-4.521,5.7h.005l16.466-5.854,6.387,8.3H22.494ZM13.248,45.68h4.078L27.642,59.085,17.224,62.79H6.722Zm41.2,17.111-6.868-8.924L57.626,50.3l4.766,12.5Z" transform="translate(0 0)"/></g></svg>