<svg xmlns="http://www.w3.org/2000/svg" xmlns:xlink="http://www.w3.org/1999/xlink" width="60" height="60" viewBox="0 0 60 60"><defs><style>.a{fill:url(#a);}</style><linearGradient id="a" x1="0.963" y1="0.464" x2="0.005" y2="0.538" gradientUnits="objectBoundingBox"><stop offset="0" stop-color="#ffeb76"/><stop offset="0.169" stop-color="#ad7e24"/><stop offset="0.254" stop-color="#894e00"/><stop offset="0.51" stop-color="#c3912f"/><stop offset="0.541" stop-color="#cca13c"/><stop offset="0.657" stop-color="#efda6b"/><stop offset="0.712" stop-color="#fdf17e"/><stop offset="0.887" stop-color="#9f6812"/><stop offset="1" stop-color="#e4c85c"/></linearGradient></defs><path class="a" d="M52.226,14.512a2.127,2.127,0,0,0,1.5-.623L59.62,8a1.3,1.3,0,0,0-.834-2.208l-3.135-.2L57.7,3.548a.879.879,0,1,0-1.243-1.243L54.408,4.351l-.2-3.135A1.3,1.3,0,0,0,52,.381L46.112,6.272a2.127,2.127,0,0,0-.619,1.637l.2,3.226A27.735,27.735,0,0,0,7.213,50.926a.879.879,0,0,0,1.3-1.183A25.987,25.987,0,0,1,45.482,13.276l-4.01,4.01A20.337,20.337,0,0,0,9.635,41.572h0a20.35,20.35,0,0,0,38.024-5.165.879.879,0,1,0-1.721-.357A18.592,18.592,0,0,1,11.2,40.767h0a18.35,18.35,0,0,1-2.058-8.5,18.573,18.573,0,0,1,31.09-13.741L36.255,22.5A12.984,12.984,0,1,0,37.5,23.747l3.975-3.975a18.512,18.512,0,0,1,4.851,12.39.879.879,0,0,0,.879.874h.005a.879.879,0,0,0,.874-.884,20.266,20.266,0,0,0-5.366-13.623l4.011-4.011A25.987,25.987,0,0,1,11.4,52.464a.879.879,0,0,0-1.106,1.366A27.732,27.732,0,0,0,55.463,32.27a27.507,27.507,0,0,0-5.454-16.518q-.554-.746-1.152-1.448c3.445.216,3.26.207,3.369.207ZM38.942,32.27a11.224,11.224,0,1,1-3.934-8.521l-4,4a5.6,5.6,0,1,0,1.243,1.243l4-4A11.163,11.163,0,0,1,38.942,32.27Zm-11.833.622a.879.879,0,0,0,1.243,0l2.635-2.635a3.834,3.834,0,1,1-1.243-1.243L27.11,31.649a.879.879,0,0,0,0,1.243ZM47.248,7.8a.368.368,0,0,1,.107-.284L52.521,2.35l.23,3.658-5.283,5.283Zm1.462,4.735,5.283-5.283,3.658.23-5.165,5.165a.367.367,0,0,1-.284.107Z" transform="translate(0 -0.002)"/></svg>