<svg xmlns="http://www.w3.org/2000/svg" xmlns:xlink="http://www.w3.org/1999/xlink" width="120" height="119.999" viewBox="0 0 120 119.999"><defs><style>.a{fill:url(#a);}</style><linearGradient id="a" x1="0.963" y1="0.464" x2="0.005" y2="0.538" gradientUnits="objectBoundingBox"><stop offset="0" stop-color="#ffeb76"/><stop offset="0.169" stop-color="#ad7e24"/><stop offset="0.254" stop-color="#894e00"/><stop offset="0.51" stop-color="#c3912f"/><stop offset="0.541" stop-color="#cca13c"/><stop offset="0.657" stop-color="#efda6b"/><stop offset="0.712" stop-color="#fdf17e"/><stop offset="0.887" stop-color="#9f6812"/><stop offset="1" stop-color="#e4c85c"/></linearGradient></defs><g transform="translate(0 -0.002)"><path class="a" d="M104.451,29.022a4.254,4.254,0,0,0,3.007-1.246L119.24,15.994a2.592,2.592,0,0,0-1.669-4.415l-6.27-.394,4.091-4.091a1.758,1.758,0,1,0-2.486-2.486L108.816,8.7l-.394-6.27A2.592,2.592,0,0,0,104.007.761L92.225,12.543a4.254,4.254,0,0,0-1.237,3.274l.4,6.452a55.471,55.471,0,0,0-76.966,79.583,1.758,1.758,0,0,0,2.6-2.366A51.973,51.973,0,0,1,90.964,26.551l-8.021,8.021A40.674,40.674,0,0,0,19.269,83.143h0a40.7,40.7,0,0,0,76.048-10.33,1.758,1.758,0,1,0-3.442-.714,37.184,37.184,0,0,1-69.481,9.432h0a36.7,36.7,0,0,1-4.115-16.993,37.147,37.147,0,0,1,62.18-27.482l-7.949,7.949A25.969,25.969,0,1,0,75,47.491l7.95-7.95a37.025,37.025,0,0,1,9.7,24.78A1.758,1.758,0,0,0,94.4,66.069h.01A1.758,1.758,0,0,0,96.162,64.3,40.531,40.531,0,0,0,85.431,37.055l8.021-8.021a51.974,51.974,0,0,1-70.661,75.893,1.758,1.758,0,0,0-2.213,2.732,55.465,55.465,0,0,0,90.347-43.121A55.013,55.013,0,0,0,100.017,31.5q-1.108-1.492-2.3-2.9c6.891.433,6.519.415,6.737.415ZM77.885,64.538A22.449,22.449,0,1,1,70.018,47.5l-8,8A11.191,11.191,0,1,0,64.5,57.983l8-8A22.325,22.325,0,0,1,77.885,64.538ZM54.219,65.782a1.758,1.758,0,0,0,2.486,0l5.269-5.269a7.668,7.668,0,1,1-2.486-2.486L54.219,63.3a1.758,1.758,0,0,0,0,2.486ZM94.5,15.6a.737.737,0,0,1,.214-.567L105.042,4.7l.459,7.316L94.935,22.58Zm2.924,9.47L107.987,14.5l7.316.459L104.973,25.29a.735.735,0,0,1-.567.214Z" transform="translate(0 0)"/></g></svg>