<svg xmlns="http://www.w3.org/2000/svg" xmlns:xlink="http://www.w3.org/1999/xlink" width="60" height="60" viewBox="0 0 60 60"><defs><style>.a{fill:url(#a);}</style><linearGradient id="a" x1="0.963" y1="0.464" x2="0.005" y2="0.538" gradientUnits="objectBoundingBox"><stop offset="0" stop-color="#ffeb76"/><stop offset="0.169" stop-color="#ad7e24"/><stop offset="0.254" stop-color="#894e00"/><stop offset="0.51" stop-color="#c3912f"/><stop offset="0.541" stop-color="#cca13c"/><stop offset="0.657" stop-color="#efda6b"/><stop offset="0.712" stop-color="#fdf17e"/><stop offset="0.887" stop-color="#9f6812"/><stop offset="1" stop-color="#e4c85c"/></linearGradient></defs><g transform="translate(0)"><path class="a" d="M59.121,47.017A.879.879,0,0,0,60,46.138V44.791a5.605,5.605,0,0,0-3.859-5.334L50.648,37.65v-1.9a6.563,6.563,0,0,0,3.2-5.63V26.33A6.558,6.558,0,0,0,42.057,22.37a5.583,5.583,0,0,0-3.2-2.68l-5.493-1.808v-1.9a6.563,6.563,0,0,0,3.2-5.63V6.561a6.561,6.561,0,1,0-13.122,0v3.788a6.563,6.563,0,0,0,3.2,5.63v1.9l-5.492,1.808a5.584,5.584,0,0,0-3.2,2.681A6.558,6.558,0,0,0,6.156,26.33v3.788a6.563,6.563,0,0,0,3.2,5.63v1.9L3.858,39.458A5.605,5.605,0,0,0,0,44.791v1.347a.879.879,0,0,0,1.758,0V44.791a3.851,3.851,0,0,1,2.65-3.664l5.146-1.693a3.365,3.365,0,0,0,6.326,0l5.145,1.693a3.845,3.845,0,0,1,2.406,2.313l-2.288.753a5.6,5.6,0,0,0-3.859,5.333v1.022H6.73v-2.2a.879.879,0,0,0-1.758,0v2.2H1.758v-.3a.879.879,0,0,0-1.758,0v1.182a.879.879,0,0,0,.879.879h16.4v6.816a.879.879,0,0,0,.879.879H41.838a.879.879,0,0,0,.879-.879V57.947a.879.879,0,0,0-1.758,0v.3H37.745V53.084a.879.879,0,0,0-1.758,0v5.158H24.013V53.084a.879.879,0,0,0-1.758,0v5.158H19.041V49.526a3.849,3.849,0,0,1,2.651-3.663l5.145-1.693a3.365,3.365,0,0,0,6.326,0l5.145,1.693a3.849,3.849,0,0,1,2.651,3.663v4.317a.879.879,0,0,0,1.758,0V52.305h16.4A.879.879,0,0,0,60,51.427V50.244a.879.879,0,0,0-1.758,0v.3H55.028v-2.2a.879.879,0,0,0-1.758,0v2.2H42.717V49.526a5.6,5.6,0,0,0-3.859-5.333l-2.288-.753a3.846,3.846,0,0,1,2.405-2.313l5.146-1.693a3.365,3.365,0,0,0,6.326,0l5.145,1.693a3.85,3.85,0,0,1,2.651,3.664v1.347a.879.879,0,0,0,.879.879ZM47.283,21.527a4.809,4.809,0,0,1,4.8,4.8v3.788a4.8,4.8,0,1,1-9.606,0V26.33a4.809,4.809,0,0,1,4.8-4.8ZM25.2,10.349V6.561a4.8,4.8,0,0,1,9.607,0v3.788a4.8,4.8,0,0,1-9.607,0ZM30,16.91a6.549,6.549,0,0,0,1.607-.2v1.783c0,.008,0,.017,0,.025a1.607,1.607,0,0,1-3.214,0c0-.008,0-.017,0-.025V16.71a6.552,6.552,0,0,0,1.607.2Zm-8.308,4.449,5.145-1.694a3.365,3.365,0,0,0,6.326,0l5.145,1.694a3.828,3.828,0,0,1,2.63,3.3,6.545,6.545,0,0,0-.217,1.672v3.788a6.6,6.6,0,0,0,.033.66h-4.2a6.56,6.56,0,0,0-13.108,0h-4.2a6.6,6.6,0,0,0,.033-.66V26.33a6.546,6.546,0,0,0-.217-1.672,3.829,3.829,0,0,1,2.631-3.3ZM30,39.657a4.809,4.809,0,0,1-4.8-4.8V31.065a4.8,4.8,0,0,1,9.607,0v3.788A4.809,4.809,0,0,1,30,39.657ZM7.913,30.118V26.33a4.8,4.8,0,1,1,9.606,0v3.788a4.8,4.8,0,1,1-9.606,0Zm6.41,8.168a1.607,1.607,0,0,1-3.214,0V36.48a6.563,6.563,0,0,0,3.214,0Zm7.251,1.171L16.082,37.65v-1.9a6.6,6.6,0,0,0,2.733-3.212h4.625v2.318a6.563,6.563,0,0,0,3.2,5.63v1.9l-1.535.505a5.6,5.6,0,0,0-3.525-3.433ZM30,44.629a1.609,1.609,0,0,1-1.607-1.607V41.215a6.563,6.563,0,0,0,3.214,0v1.807A1.609,1.609,0,0,1,30,44.629Zm8.425-5.171A5.6,5.6,0,0,0,34.9,42.891l-1.535-.505v-1.9a6.563,6.563,0,0,0,3.2-5.63V32.536h4.625a6.6,6.6,0,0,0,2.733,3.212v1.9Zm8.858.436a1.609,1.609,0,0,1-1.607-1.607V36.48a6.563,6.563,0,0,0,3.214,0v1.807A1.609,1.609,0,0,1,47.283,39.894Z"/></g></svg>