<svg xmlns="http://www.w3.org/2000/svg" xmlns:xlink="http://www.w3.org/1999/xlink" width="261" height="261" viewBox="0 0 261 261"><defs><style>.a{fill:#1c1b19;}.b{fill:none;stroke:#fcd462;}.c{fill:url(#c);}.d{filter:url(#a);}</style><filter id="a" x="0" y="0" width="261" height="261" filterUnits="userSpaceOnUse"><feOffset input="SourceAlpha"/><feGaussianBlur stdDeviation="17.5" result="b"/><feFlood flood-color="#c9c9c9" flood-opacity="0.322"/><feComposite operator="in" in2="b"/><feComposite in="SourceGraphic"/></filter><linearGradient id="c" x1="0.963" y1="0.464" x2="0.005" y2="0.538" gradientUnits="objectBoundingBox"><stop offset="0" stop-color="#ffeb76"/><stop offset="0.169" stop-color="#ad7e24"/><stop offset="0.254" stop-color="#894e00"/><stop offset="0.51" stop-color="#c3912f"/><stop offset="0.541" stop-color="#cca13c"/><stop offset="0.657" stop-color="#efda6b"/><stop offset="0.712" stop-color="#fdf17e"/><stop offset="0.887" stop-color="#9f6812"/><stop offset="1" stop-color="#e4c85c"/></linearGradient></defs><g transform="translate(-827.5 -5071.5)"><g class="d" transform="matrix(1, 0, 0, 1, 827.5, 5071.5)"><circle class="a" cx="78" cy="78" r="78" transform="translate(52.5 52.5)"/></g><circle class="b" cx="98" cy="98" r="98" transform="translate(860 5104)"/><path class="c" d="M13.119,40.758c.485-1.12,1.022-2.2,1.6-3.247a36.787,36.787,0,0,1,2.413-3.8,1.377,1.377,0,0,1,2.231,1.616,34.331,34.331,0,0,0-2.241,3.523c-.349.625-.678,1.266-.985,1.913h5.024a1.376,1.376,0,0,1,1.381,1.376V54.2a8.722,8.722,0,0,1-.771,3.591A12,12,0,0,1,25.4,60.063a6.11,6.11,0,0,1,2.132,4.456v6.729a1.384,1.384,0,0,1-1.381,1.381H17.585c.453.776.938,1.537,1.449,2.272a33.467,33.467,0,0,0,3.122,3.852A1.377,1.377,0,0,1,20.15,80.64a37.444,37.444,0,0,1-3.377-4.164,36.93,36.93,0,0,1-2.34-3.846H1.381A1.384,1.384,0,0,1,0,71.248V64.519a6.113,6.113,0,0,1,2.1-4.43A12.056,12.056,0,0,1,5.759,57.8,8.722,8.722,0,0,1,4.988,54.2V46.277a5.526,5.526,0,0,1,5.52-5.519h2.611ZM86.394,52.125,79.118,49.66,74.36,52V54.2a6.017,6.017,0,0,0,12.035,0ZM74.36,48.936l3.982-1.949a1.363,1.363,0,0,1,1.126-.115l6.927,2.345V46.278a2.776,2.776,0,0,0-2.763-2.762H77.117a2.767,2.767,0,0,0-2.757,2.762v2.658ZM7.745,47.283h12.04V43.515H10.507a2.776,2.776,0,0,0-2.763,2.762v1.006Zm12.04,2.757H7.745V54.2a6.02,6.02,0,0,0,12.04,0V50.041Zm33.3,27.274a9.588,9.588,0,0,1-7.844-2.1,7.22,7.22,0,0,1-4.2,1v3.341a6.02,6.02,0,0,0,12.04,0ZM41.05,73.458a4.443,4.443,0,0,0,3.419-1.037l.005.005.031-.031a1.377,1.377,0,0,1,1.939.141,6.847,6.847,0,0,0,6.645,2.007V71.634a2.776,2.776,0,0,0-2.762-2.762H43.812a2.776,2.776,0,0,0-2.762,2.762v1.824ZM20.217,60.136a8.744,8.744,0,0,1-12.9.005A9.788,9.788,0,0,0,4,62.08a3.458,3.458,0,0,0-1.241,2.439v5.353H24.773V64.519a3.46,3.46,0,0,0-1.261-2.455,9.859,9.859,0,0,0-3.294-1.928ZM89.151,54.2A8.722,8.722,0,0,1,88.38,57.8a12.113,12.113,0,0,1,3.654,2.288,6.1,6.1,0,0,1,2.106,4.435v6.729a1.379,1.379,0,0,1-1.376,1.381H79.66A39.031,39.031,0,0,1,77.284,76.4a39.764,39.764,0,0,1-3.4,4.144,1.377,1.377,0,0,1-2.007-1.887,36.42,36.42,0,0,0,3.164-3.852q.758-1.063,1.438-2.179H67.99a1.383,1.383,0,0,1-1.381-1.381V64.52a6.121,6.121,0,0,1,2.126-4.451A12,12,0,0,1,72.374,57.8a8.641,8.641,0,0,1-.777-3.591V46.278a5.525,5.525,0,0,1,5.519-5.519h.9c-.3-.636-.62-1.261-.964-1.876a34.038,34.038,0,0,0-2.288-3.575,1.376,1.376,0,0,1,2.22-1.626,37.171,37.171,0,0,1,2.47,3.867,35.3,35.3,0,0,1,1.579,3.21h2.6a5.516,5.516,0,0,1,5.519,5.519V54.2Zm-2.325,5.936a8.749,8.749,0,0,1-12.9,0,9.8,9.8,0,0,0-3.3,1.928,3.463,3.463,0,0,0-1.251,2.45v5.353h22.01V64.519a3.446,3.446,0,0,0-1.246-2.439,9.709,9.709,0,0,0-3.31-1.939Zm-30.98,19.42a8.7,8.7,0,0,1-.771,3.591,12.128,12.128,0,0,1,3.654,2.293,7.5,7.5,0,0,1,1.282,1.574,33.552,33.552,0,0,0,3.226-1.579,35.176,35.176,0,0,0,4.18-2.747,1.374,1.374,0,1,1,1.668,2.184,37.819,37.819,0,0,1-4.514,2.966,35.322,35.322,0,0,1-3.742,1.814c.005.073.005.151.005.224v6.729a1.375,1.375,0,0,1-1.376,1.376H34.686A1.379,1.379,0,0,1,33.3,96.609V89.881c0-.073.005-.146.005-.219a38.33,38.33,0,0,1-3.826-1.814,36.964,36.964,0,0,1-4.5-2.893,1.372,1.372,0,1,1,1.647-2.194,35.022,35.022,0,0,0,4.17,2.674,34.2,34.2,0,0,0,3.325,1.59,7.692,7.692,0,0,1,1.272-1.564,11.968,11.968,0,0,1,3.675-2.3,8.645,8.645,0,0,1-.777-3.6V71.634a5.534,5.534,0,0,1,5.519-5.519h6.515a5.534,5.534,0,0,1,5.519,5.519v7.927ZM53.522,85.5a8.749,8.749,0,0,1-12.9,0,9.779,9.779,0,0,0-3.325,1.954,3.442,3.442,0,0,0-1.23,2.429v5.347H58.077V89.881a3.448,3.448,0,0,0-1.24-2.439A9.788,9.788,0,0,0,53.522,85.5Zm-30.23-54.7a1.375,1.375,0,0,1-1.908-1.981,35.871,35.871,0,0,1,6.593-5.04,19.148,19.148,0,0,1,38.178-.094c1.079.662,2.121,1.381,3.122,2.142A37.359,37.359,0,0,1,72.734,28.8a1.373,1.373,0,1,1-1.913,1.97,35.881,35.881,0,0,0-3.211-2.762c-.479-.37-.969-.719-1.459-1.058-.427,5.238-2.768,8.8-5.014,12.206-2.033,3.091-3.982,6.051-4.013,10.028l.005,6.374a6.682,6.682,0,0,1-6.661,6.661H43.677a6.673,6.673,0,0,1-6.661-6.661l0-6.374c-.036-3.977-1.98-6.937-4.013-10.028-2.241-3.4-4.571-6.937-5.009-12.144-.516.344-1.022.7-1.517,1.074a32.887,32.887,0,0,0-3.19,2.705ZM39.773,53.47H54.366V50.676H39.773Zm14.536,2.757H39.83a3.919,3.919,0,0,0,3.846,3.237h6.791a3.919,3.919,0,0,0,3.841-3.237ZM45.74,35.75c-.224-.824-.615-1.949-1.058-3.237-1.246-3.6-2.9-8.4-2.9-12.019,0-3.476,1.329-5.957,5.29-5.957s5.3,2.481,5.3,5.957c0,3.622-1.657,8.417-2.9,12.019-.448,1.293-.839,2.429-1.068,3.252a1.373,1.373,0,0,1-2.653-.016Zm-1.2-15.256c0,3.012,1.391,7.208,2.533,10.528,1.147-3.32,2.538-7.516,2.538-10.528,0-1.866-.641-3.2-2.538-3.2s-2.533,1.334-2.533,3.2Zm1.157,20.123a1.379,1.379,0,0,1,2.757,0v1.433a1.379,1.379,0,0,1-2.757,0Zm-5.989,7.3H54.434c.365-4.123,2.346-7.135,4.409-10.268,2.257-3.429,4.618-7.021,4.618-12.42a16.389,16.389,0,1,0-32.778,0c0,5.4,2.361,8.99,4.618,12.42,2.059,3.133,4.044,6.145,4.4,10.268Z" transform="translate(911 5149.917)"/></g></svg>